<svg 
    xmlns="http://www.w3.org/2000/svg" 
    xmlns:xlink="http://www.w3.org/1999/xlink"
    viewBox="0 0 1422 800" opacity="0.13">
    <defs>
        <linearGradient x1="50%" y1="0%" x2="50%" y2="100%" id="oooscillate-grad">
        <stop stop-color="#440f15" stop-opacity="1" offset="0%"></stop>
        <stop stop-color="#d3a4aa" stop-opacity="1" offset="100%"></stop>
        </linearGradient>
    </defs>
    <g stroke-width="1" stroke="url(#oooscillate-grad)" fill="none" stroke-linecap="round">
        <path d="M 0 4505 Q 355.5 15 711 400 Q 1066.5 785 1422 4505" opacity="0.05"></path>
        <path d="M 0 4452 Q 355.5 15 711 400 Q 1066.5 785 1422 4452" opacity="0.06"></path>
        <path d="M 0 4399 Q 355.5 15 711 400 Q 1066.5 785 1422 4399" opacity="0.07"></path>
        <path d="M 0 4346 Q 355.5 15 711 400 Q 1066.5 785 1422 4346" opacity="0.08"></path>
        <path d="M 0 4293 Q 355.5 15 711 400 Q 1066.5 785 1422 4293" opacity="0.10"></path>
        <path d="M 0 4240 Q 355.5 15 711 400 Q 1066.5 785 1422 4240" opacity="0.11"></path>
        <path d="M 0 4187 Q 355.5 15 711 400 Q 1066.5 785 1422 4187" opacity="0.12"></path>
        <path d="M 0 4134 Q 355.5 15 711 400 Q 1066.5 785 1422 4134" opacity="0.13"></path>
        <path d="M 0 4081 Q 355.5 15 711 400 Q 1066.5 785 1422 4081" opacity="0.14"></path>
        <path d="M 0 4028 Q 355.5 15 711 400 Q 1066.5 785 1422 4028" opacity="0.15"></path>
        <path d="M 0 3975 Q 355.5 15 711 400 Q 1066.5 785 1422 3975" opacity="0.16"></path>
        <path d="M 0 3922 Q 355.5 15 711 400 Q 1066.5 785 1422 3922" opacity="0.17"></path>
        <path d="M 0 3869 Q 355.5 15 711 400 Q 1066.5 785 1422 3869" opacity="0.19"></path>
        <path d="M 0 3816 Q 355.5 15 711 400 Q 1066.5 785 1422 3816" opacity="0.20"></path>
        <path d="M 0 3763 Q 355.5 15 711 400 Q 1066.5 785 1422 3763" opacity="0.21"></path>
        <path d="M 0 3710 Q 355.5 15 711 400 Q 1066.5 785 1422 3710" opacity="0.22"></path>
        <path d="M 0 3657 Q 355.5 15 711 400 Q 1066.5 785 1422 3657" opacity="0.23"></path>
        <path d="M 0 3604 Q 355.5 15 711 400 Q 1066.5 785 1422 3604" opacity="0.24"></path>
        <path d="M 0 3551 Q 355.5 15 711 400 Q 1066.5 785 1422 3551" opacity="0.25"></path>
        <path d="M 0 3498 Q 355.5 15 711 400 Q 1066.5 785 1422 3498" opacity="0.26"></path>
        <path d="M 0 3445 Q 355.5 15 711 400 Q 1066.5 785 1422 3445" opacity="0.28"></path>
        <path d="M 0 3392 Q 355.5 15 711 400 Q 1066.5 785 1422 3392" opacity="0.29"></path>
        <path d="M 0 3339 Q 355.5 15 711 400 Q 1066.5 785 1422 3339" opacity="0.30"></path>
        <path d="M 0 3286 Q 355.5 15 711 400 Q 1066.5 785 1422 3286" opacity="0.31"></path>
        <path d="M 0 3233 Q 355.5 15 711 400 Q 1066.5 785 1422 3233" opacity="0.32"></path>
        <path d="M 0 3180 Q 355.5 15 711 400 Q 1066.5 785 1422 3180" opacity="0.33"></path>
        <path d="M 0 3127 Q 355.5 15 711 400 Q 1066.5 785 1422 3127" opacity="0.34"></path>
        <path d="M 0 3074 Q 355.5 15 711 400 Q 1066.5 785 1422 3074" opacity="0.36"></path>
        <path d="M 0 3021 Q 355.5 15 711 400 Q 1066.5 785 1422 3021" opacity="0.37"></path>
        <path d="M 0 2968 Q 355.5 15 711 400 Q 1066.5 785 1422 2968" opacity="0.38"></path>
        <path d="M 0 2915 Q 355.5 15 711 400 Q 1066.5 785 1422 2915" opacity="0.39"></path>
        <path d="M 0 2862 Q 355.5 15 711 400 Q 1066.5 785 1422 2862" opacity="0.40"></path>
        <path d="M 0 2809 Q 355.5 15 711 400 Q 1066.5 785 1422 2809" opacity="0.41"></path>
        <path d="M 0 2756 Q 355.5 15 711 400 Q 1066.5 785 1422 2756" opacity="0.42"></path>
        <path d="M 0 2703 Q 355.5 15 711 400 Q 1066.5 785 1422 2703" opacity="0.43"></path>
        <path d="M 0 2650 Q 355.5 15 711 400 Q 1066.5 785 1422 2650" opacity="0.45"></path>
        <path d="M 0 2597 Q 355.5 15 711 400 Q 1066.5 785 1422 2597" opacity="0.46"></path>
        <path d="M 0 2544 Q 355.5 15 711 400 Q 1066.5 785 1422 2544" opacity="0.47"></path>
        <path d="M 0 2491 Q 355.5 15 711 400 Q 1066.5 785 1422 2491" opacity="0.48"></path>
        <path d="M 0 2438 Q 355.5 15 711 400 Q 1066.5 785 1422 2438" opacity="0.49"></path>
        <path d="M 0 2385 Q 355.5 15 711 400 Q 1066.5 785 1422 2385" opacity="0.50"></path>
        <path d="M 0 2332 Q 355.5 15 711 400 Q 1066.5 785 1422 2332" opacity="0.51"></path>
        <path d="M 0 2279 Q 355.5 15 711 400 Q 1066.5 785 1422 2279" opacity="0.53"></path>
        <path d="M 0 2226 Q 355.5 15 711 400 Q 1066.5 785 1422 2226" opacity="0.54"></path>
        <path d="M 0 2173 Q 355.5 15 711 400 Q 1066.5 785 1422 2173" opacity="0.55"></path>
        <path d="M 0 2120 Q 355.5 15 711 400 Q 1066.5 785 1422 2120" opacity="0.56"></path>
        <path d="M 0 2067 Q 355.5 15 711 400 Q 1066.5 785 1422 2067" opacity="0.57"></path>
        <path d="M 0 2014 Q 355.5 15 711 400 Q 1066.5 785 1422 2014" opacity="0.58"></path>
        <path d="M 0 1961 Q 355.5 15 711 400 Q 1066.5 785 1422 1961" opacity="0.59"></path>
        <path d="M 0 1908 Q 355.5 15 711 400 Q 1066.5 785 1422 1908" opacity="0.60"></path>
        <path d="M 0 1855 Q 355.5 15 711 400 Q 1066.5 785 1422 1855" opacity="0.62"></path>
        <path d="M 0 1802 Q 355.5 15 711 400 Q 1066.5 785 1422 1802" opacity="0.63"></path>
        <path d="M 0 1749 Q 355.5 15 711 400 Q 1066.5 785 1422 1749" opacity="0.64"></path>
        <path d="M 0 1696 Q 355.5 15 711 400 Q 1066.5 785 1422 1696" opacity="0.65"></path>
        <path d="M 0 1643 Q 355.5 15 711 400 Q 1066.5 785 1422 1643" opacity="0.66"></path>
        <path d="M 0 1590 Q 355.5 15 711 400 Q 1066.5 785 1422 1590" opacity="0.67"></path>
        <path d="M 0 1537 Q 355.5 15 711 400 Q 1066.5 785 1422 1537" opacity="0.68"></path>
        <path d="M 0 1484 Q 355.5 15 711 400 Q 1066.5 785 1422 1484" opacity="0.69"></path>
        <path d="M 0 1431 Q 355.5 15 711 400 Q 1066.5 785 1422 1431" opacity="0.71"></path>
        <path d="M 0 1378 Q 355.5 15 711 400 Q 1066.5 785 1422 1378" opacity="0.72"></path>
        <path d="M 0 1325 Q 355.5 15 711 400 Q 1066.5 785 1422 1325" opacity="0.73"></path>
        <path d="M 0 1272 Q 355.5 15 711 400 Q 1066.5 785 1422 1272" opacity="0.74"></path>
        <path d="M 0 1219 Q 355.5 15 711 400 Q 1066.5 785 1422 1219" opacity="0.75"></path>
        <path d="M 0 1166 Q 355.5 15 711 400 Q 1066.5 785 1422 1166" opacity="0.76"></path>
        <path d="M 0 1113 Q 355.5 15 711 400 Q 1066.5 785 1422 1113" opacity="0.77"></path>
        <path d="M 0 1060 Q 355.5 15 711 400 Q 1066.5 785 1422 1060" opacity="0.79"></path>
        <path d="M 0 1007 Q 355.5 15 711 400 Q 1066.5 785 1422 1007" opacity="0.80"></path>
        <path d="M 0 954 Q 355.5 15 711 400 Q 1066.5 785 1422 954" opacity="0.81"></path>
        <path d="M 0 901 Q 355.5 15 711 400 Q 1066.5 785 1422 901" opacity="0.82"></path>
        <path d="M 0 848 Q 355.5 15 711 400 Q 1066.5 785 1422 848" opacity="0.83"></path>
        <path d="M 0 795 Q 355.5 15 711 400 Q 1066.5 785 1422 795" opacity="0.84"></path>
        <path d="M 0 742 Q 355.5 15 711 400 Q 1066.5 785 1422 742" opacity="0.85"></path>
        <path d="M 0 689 Q 355.5 15 711 400 Q 1066.5 785 1422 689" opacity="0.86"></path>
        <path d="M 0 636 Q 355.5 15 711 400 Q 1066.5 785 1422 636" opacity="0.88"></path>
        <path d="M 0 583 Q 355.5 15 711 400 Q 1066.5 785 1422 583" opacity="0.89"></path>
        <path d="M 0 530 Q 355.5 15 711 400 Q 1066.5 785 1422 530" opacity="0.90"></path>
        <path d="M 0 477 Q 355.5 15 711 400 Q 1066.5 785 1422 477" opacity="0.91"></path>
        <path d="M 0 424 Q 355.5 15 711 400 Q 1066.5 785 1422 424" opacity="0.92"></path>
        <path d="M 0 371 Q 355.5 15 711 400 Q 1066.5 785 1422 371" opacity="0.93"></path>
        <path d="M 0 318 Q 355.5 15 711 400 Q 1066.5 785 1422 318" opacity="0.94"></path>
        <path d="M 0 265 Q 355.5 15 711 400 Q 1066.5 785 1422 265" opacity="0.95"></path>
        <path d="M 0 212 Q 355.5 15 711 400 Q 1066.5 785 1422 212" opacity="0.97"></path>
        <path d="M 0 159 Q 355.5 15 711 400 Q 1066.5 785 1422 159" opacity="0.98"></path>
        <path d="M 0 106 Q 355.5 15 711 400 Q 1066.5 785 1422 106" opacity="0.99"></path>
    </g>
</svg>